<?xml version="1.0" standalone="no"?>
<!DOCTYPE svg PUBLIC "-//W3C//DTD SVG 20010904//EN"
 "http://www.w3.org/TR/2001/REC-SVG-20010904/DTD/svg10.dtd">
<svg version="1.0" xmlns="http://www.w3.org/2000/svg"
 width="24.000000pt" height="24.000000pt" viewBox="0 0 24.000000 24.000000"
 preserveAspectRatio="xMidYMid meet">

<g transform="translate(0.000000,24.000000) scale(0.100000,-0.100000)"
fill="#D7FC51" stroke="none">
<path d="M26 187 c-9 -7 -20 -31 -23 -54 -5 -35 -2 -45 20 -67 33 -33 47 -33
47 -1 0 22 4 25 35 25 31 0 35 -3 35 -25 0 -30 32 -35 52 -7 7 10 22 22 33 27
19 8 19 9 -2 12 -30 6 -30 38 0 48 l22 8 -21 4 c-12 2 -24 13 -27 24 -7 27
-57 27 -57 -1 0 -16 -7 -20 -35 -20 -28 0 -35 4 -35 20 0 23 -18 26 -44 7z"/>
</g>
</svg>
