<svg width="24" height="24" viewBox="0 0 24 24" fill="none" xmlns="http://www.w3.org/2000/svg">
<g clip-path="url(#clip0_1266_14530)">
<path fill-rule="evenodd" clip-rule="evenodd" d="M24 14.6667C24 14.9116 23.9031 15.148 23.7277 15.331C23.5524 15.5141 23.3108 15.631 23.0487 15.6597L22.9226 15.6667L19.6906 15.6667L19.6906 17.6667C19.6907 18.1712 19.4854 18.6572 19.1158 19.0272C18.7461 19.3972 18.2395 19.6238 17.6974 19.6617L17.5358 19.6667L14.1538 19.6667L14.1538 15.5641C14.1538 15.1109 13.7865 14.7436 13.3333 14.7436L8.20513 14.7436C7.75197 14.7436 7.38461 15.1109 7.38461 15.5641L7.38461 19.6667L6.87442 19.6667C5.20194 19.6667 3.59455 19.0651 2.38994 17.9882C1.18533 16.9113 0.477285 15.4429 0.414568 13.8917L0.410259 13.6667L0.410259 9.66666C0.410196 8.11428 1.05836 6.62229 2.21857 5.50418C3.37878 4.38607 4.96071 3.72887 6.63201 3.67066L6.87442 3.66666L7.38461 3.66666L7.38461 7.56409C7.38461 8.01725 7.75197 8.3846 8.20513 8.3846L13.3333 8.3846C13.7865 8.3846 14.1538 8.01725 14.1538 7.56409L14.1538 3.66666L17.5358 3.66666C18.0794 3.6665 18.603 3.85706 19.0016 4.20015C19.4002 4.54324 19.6444 5.0135 19.6852 5.51666L19.6906 5.66666L19.6906 7.66666L22.9226 7.66666C23.1972 7.66694 23.4614 7.76454 23.661 7.93951C23.8607 8.11447 23.9809 8.35361 23.997 8.60805C24.013 8.86249 23.9239 9.11304 23.7476 9.30849C23.5714 9.50394 23.3214 9.62955 23.0487 9.65966L22.9226 9.66666L19.6906 9.66666L19.6906 13.6667L22.9226 13.6667C23.2084 13.6667 23.4824 13.772 23.6844 13.9596C23.8865 14.1471 24 14.4014 24 14.6667Z" fill="black"/>
</g>
<defs>
<clipPath id="clip0_1266_14530">
<rect width="24" height="24" fill="white" transform="translate(24) rotate(90)"/>
</clipPath>
</defs>
</svg>
