<svg width="32" height="32" viewBox="0 0 32 32" fill="none" xmlns="http://www.w3.org/2000/svg">
<path d="M12.8748 21.8907L14.9786 18.5246H13.7163V16L11.6125 19.3661H12.8748V21.8907ZM10.7709 14.317H15.8201V10.1093H10.7709V14.317ZM16.6616 23.5737H9.92942C9.69099 23.5737 9.49098 23.4929 9.32941 23.3314C9.16784 23.1698 9.08733 22.9701 9.08789 22.7322V10.1093C9.08789 9.64648 9.25283 9.25012 9.58271 8.92025C9.91259 8.59037 10.3087 8.42571 10.7709 8.42627H15.8201C16.2829 8.42627 16.6793 8.59121 17.0092 8.92109C17.3391 9.25097 17.5037 9.64704 17.5032 10.1093V16H18.5551C18.9618 16 19.3091 16.1439 19.5969 16.4317C19.8847 16.7195 20.0283 17.0665 20.0277 17.4727V21.3647C20.0277 21.6032 20.1259 21.8206 20.3223 22.0169C20.5186 22.2133 20.736 22.3114 20.9744 22.3114C21.2269 22.3114 21.4479 22.2133 21.6376 22.0169C21.8272 21.8206 21.9217 21.6032 21.9212 21.3647V13.4754H21.7108C21.4724 13.4754 21.2723 13.3946 21.1108 13.2331C20.9492 13.0715 20.8687 12.8718 20.8693 12.6339V11.3716C20.8693 11.2594 20.9113 11.1612 20.9955 11.0771C21.0796 10.9929 21.1778 10.9508 21.29 10.9508V10.1093C21.29 9.99712 21.3321 9.89894 21.4162 9.81479C21.5004 9.73064 21.5986 9.68856 21.7108 9.68856C21.823 9.68856 21.9212 9.73064 22.0053 9.81479C22.0895 9.89894 22.1315 9.99712 22.1315 10.1093V10.9508H22.9731V10.1093C22.9731 9.99712 23.0151 9.89894 23.0993 9.81479C23.1835 9.73064 23.2816 9.68856 23.3938 9.68856C23.506 9.68856 23.6042 9.73064 23.6884 9.81479C23.7725 9.89894 23.8146 9.99712 23.8146 10.1093V10.9508C23.9268 10.9508 24.025 10.9929 24.1091 11.0771C24.1933 11.1612 24.2354 11.2594 24.2354 11.3716V12.6339C24.2354 12.8723 24.1546 13.0723 23.993 13.2339C23.8314 13.3955 23.6317 13.476 23.3938 13.4754H23.1835V21.3647C23.1835 21.9538 22.9694 22.4694 22.5414 22.9115C22.1133 23.3535 21.5913 23.5743 20.9753 23.5737C20.3722 23.5737 19.8533 23.3527 19.4185 22.9106C18.9837 22.4685 18.7663 21.9532 18.7663 21.3647V17.4727C18.7663 17.4025 18.7486 17.3498 18.7133 17.3145C18.6779 17.2791 18.6255 17.2617 18.5559 17.2623H17.5032V22.7322C17.5032 22.9706 17.4224 23.1706 17.2608 23.3322C17.0992 23.4938 16.8995 23.5743 16.6616 23.5737Z" fill="white"/>
<circle cx="15.6524" cy="16" r="14.6524" stroke="white" stroke-width="2"/>
</svg>
